<?xml version="1.0" encoding="UTF-8"?><svg xmlns="http://www.w3.org/2000/svg" viewBox="0 0 437.01 198.43"><defs><style>.d{fill:none;stroke:#040504;stroke-miterlimit:10;}</style></defs><g id="a"/><g id="b"><g id="c"><g><path d="M319.56,168.41h2.12c.63,0,.83-.14,.83-.63v-7.58c.32-.92,1.15-2.07,2.87-2.07,1.61,0,2.3,1.06,2.3,2.78v6.86c0,.34,.29,.63,.63,.63h2.32c.32,0,.63-.29,.63-.63v-6.86c0-3.21-1.09-6.06-5.31-6.06-2.3,0-3.53,1.09-4.28,1.89-.17-.98-.86-1.72-2.07-1.72-.46,0-.69,.29-.69,.6v12.14c0,.34,.32,.63,.63,.63Z"/><path d="M313.42,152.89c1.29,0,2.3-1.03,2.3-2.3s-1-2.27-2.3-2.27-2.27,1-2.27,2.27,.98,2.3,2.27,2.3Z"/><path d="M285.33,168.41h2.21c.43,0,.75-.14,.75-.63v-8.27c.23-.46,1.09-1.38,2.53-1.38,.6,0,.92,.11,1.23,.26,.32,.14,.63,.03,.77-.29l.86-1.95c.37-.86-.92-1.29-2.5-1.29-2.01,0-3.21,1.32-3.7,1.98-.17-1-.86-1.81-2.1-1.81-.46,0-.69,.29-.69,.6v12.14c0,.34,.32,.63,.63,.63Z"/><path d="M301.22,168.73c1.32,0,2.58-.32,3.19-.55v.37c0,2.47-1.09,3.16-3.13,3.16-1.38,0-2.67-.72-3.16-1-.29-.17-.66-.09-.77,.17l-.86,1.87c-.14,.23-.06,.57,.14,.75,.63,.49,2.58,1.49,4.76,1.49,3.62,0,6.6-2.15,6.6-6.43v-12.91c0-.32-.23-.6-.69-.6-1.21,0-1.89,.72-2.09,1.69-.75-.8-2.15-1.87-4.22-1.87-3.62,0-6.34,2.93-6.34,6.95s2.61,6.92,6.57,6.92Zm.26-10.59c1.72,0,2.64,1.09,2.93,1.84v4.74s-1.09,.75-2.76,.75c-2.18,0-3.3-1.78-3.3-3.64s1.06-3.67,3.13-3.67Z"/><path d="M390.7,168.73c2.35,0,4.13-1.03,5.25-2.78,.23-.34,.09-.66-.23-.95l-1.29-1.09c-.23-.2-.63-.14-.83,.09-.57,.66-1.35,1.46-2.81,1.46-2.07,0-3.47-1.61-3.47-3.67s1.44-3.64,3.5-3.64c1.23,0,2.01,.55,2.64,1.15,.26,.26,.57,.4,.86,.09l1.21-1.32c.29-.29,.43-.66,.14-.95-1.26-1.35-2.87-2.24-4.94-2.24-3.93,0-7.03,3.01-7.03,6.92s3.13,6.95,7,6.95Z"/><path d="M375.75,168.73c2.15,0,3.79-.83,4.94-1.81,.32-.29,.29-.6,.06-.86l-1.12-1.49c-.2-.29-.55-.26-.86,0-.6,.49-1.52,.98-2.84,.98-1.92,0-3.27-1.44-3.3-3.07h8.49c.29,0,.6-.26,.63-.6,.03-.2,.06-.66,.06-.86,0-3.59-2.64-6.14-6.08-6.14-3.93,0-6.69,3.19-6.69,6.92s2.76,6.95,6.72,6.95Zm-.11-10.91c1.46,0,2.5,1,2.55,2.3h-5.37c.17-1.32,1.21-2.3,2.81-2.3Z"/><path d="M399.25,168.41h2.27c.52,0,.69-.26,.69-.63v-7.32c.34-1.35,1.21-2.32,2.76-2.32s2.41,1.12,2.41,2.96v6.69c0,.34,.29,.63,.63,.63h2.32c.32,0,.63-.29,.63-.63v-6.66c0-3.33-1.15-6.26-5.37-6.26-1.58,0-2.73,.55-3.39,1.12v-7.03c0-.32-.29-.63-.63-.63h-2.32c-.32,0-.63,.32-.63,.63v18.83c0,.34,.32,.63,.63,.63Z"/><path d="M314.62,155.16h-2.32c-.32,0-.63,.26-.63,.63v12c0,.34,.32,.63,.63,.63h2.32c.32,0,.63-.29,.63-.63v-12c0-.37-.32-.63-.63-.63Z"/><path d="M340.56,168.73c1.32,0,2.58-.32,3.19-.55v.37c0,2.47-1.09,3.16-3.13,3.16-1.38,0-2.67-.72-3.16-1-.29-.17-.66-.09-.77,.17l-.86,1.87c-.14,.23-.06,.57,.14,.75,.63,.49,2.58,1.49,4.76,1.49,3.62,0,6.6-2.15,6.6-6.43v-12.91c0-.32-.23-.6-.69-.6-1.21,0-1.89,.72-2.09,1.69-.75-.8-2.15-1.87-4.22-1.87-3.62,0-6.34,2.93-6.34,6.95s2.61,6.92,6.57,6.92Zm.26-10.59c1.72,0,2.64,1.09,2.93,1.84v4.74s-1.09,.75-2.76,.75c-2.18,0-3.3-1.78-3.3-3.64s1.06-3.67,3.13-3.67Z"/><path d="M356.52,151.77h4.39v16.1c0,.29,.26,.55,.55,.55h2.67c.29,0,.55-.26,.55-.55v-16.1h4.39c.32,0,.55-.26,.55-.55v-2.35c0-.29-.23-.55-.55-.55h-12.54c-.32,0-.55,.26-.55,.55v2.35c0,.29,.23,.55,.55,.55Z"/><path d="M259.59,88.18c0-1.16,.77-1.88,2.25-1.88,1.15,0,1.81,.43,2.31,1.4l10.82,20.81c1.54,3.72,3.9,6.04,9.06,6.04,5.71,0,8.51-2.85,8.51-7.15v-26.03h-6.54v25.79c0,1.11-.82,1.84-2.2,1.84-1.21,0-1.92-.58-2.36-1.35l-10.82-20.81c-1.54-3.72-3.84-6.04-9.01-6.04-5.77,0-8.51,2.85-8.51,7.1v26.08h6.48v-25.79Z"/><path d="M357.39,87.75c.38-.77,.99-1.11,1.87-1.11s1.48,.34,1.81,1.11l11.26,26.22h7.19l-12.52-28.98c-1.32-3.04-3.84-4.2-7.69-4.2s-6.42,1.16-7.8,4.2l-13.02,28.98h7.14l11.75-26.22Z"/><polygon points="390.78 113.97 397.31 113.97 397.31 99.92 412.25 81.37 404.56 81.37 394.07 95.33 383.69 81.37 375.84 81.37 390.78 99.92 390.78 113.97"/><path d="M305.6,113.97h13.07c10.87,0,16.69-5.31,16.69-16.27s-5.88-16.32-16.69-16.32h-13.07c-2.09,0-3.08,.87-3.08,2.66v27.29c0,1.79,.99,2.66,3.08,2.66Zm3.41-26.32c0-.43,.22-.58,.71-.58h8.95c7.19,0,10.21,3.14,10.21,10.58s-3.02,10.62-10.21,10.62h-8.95c-.49,0-.71-.15-.71-.58v-20.04Z"/><path d="M222.47,113.97h7.8c7.91,0,12.03-3.53,12.03-10.38v-22.22h-6.37v21.78c0,3.24-1.92,5.12-6.1,5.12h-6.59c-4.28,0-6.15-1.88-6.15-5.12v-21.78h-6.59v22.22c0,6.86,4.06,10.38,11.97,10.38Z"/><path d="M408.09,0H28.91C12.97,0,0,12.97,0,28.91V169.52c0,15.94,12.97,28.91,28.91,28.91H408.09c15.94,0,28.91-12.97,28.91-28.91V28.91c0-15.94-12.97-28.91-28.91-28.91Zm-20.52,31.5c0-4.2,2.61-7.16,8.8-7.16h13.16v4.59h-13.16c-2.76,0-3.97,1.28-3.97,3.31,0,2.14,1.36,3.11,4.01,3.11h12.92v4.17h-13.04c-2.65,0-4.01,1.05-4.01,3.19s1.28,3.31,3.97,3.31h13.31v4.59h-13.31c-6.23,0-8.76-3.08-8.76-7.16,0-3,1.36-5.02,3.78-6.03-2.45-1.01-3.7-3.04-3.7-5.92Zm-15.46-7.16h10.16v4.59h-10.16c-5.06,0-7.28,2.53-7.28,8.56s2.18,8.52,7.28,8.52h10.16v4.59h-10.16c-7.67,0-11.87-4.32-11.87-13.12s4.24-13.16,11.87-13.16Zm-33.91,2.92c.97-2.45,2.76-3.39,5.53-3.39s4.52,.93,5.45,3.39l8.88,23.35h-5.1l-7.98-21.14c-.23-.62-.66-.9-1.29-.9s-1.05,.27-1.32,.9l-8.33,21.14h-5.06l9.23-23.35Zm-32.04-2.92h4.59v17.17c0,2.53,1.25,4.52,5.37,4.52h10.2v4.59h-10.47c-6.97,0-9.69-3.81-9.69-9.07V24.34Zm-27.02,0h13.47c5.92,0,8.45,3.66,8.45,7.86,0,3.97-2.3,8.25-8.45,8.25h-8.17c-.43,0-.66,.19-.66,.66v9.5h-4.59v-10.39c0-2.96,1.25-4.17,4.13-4.17h9.46c2.61,0,3.66-1.79,3.66-3.62s-1.13-3.5-3.62-3.5h-13.66v-4.59Zm-28.61,9.23c.04-.29,.18-.51,.42-.68,2.12-1.52,4.25-3.04,6.35-4.58,.58-.42,1.13-.41,1.72-.1,.94,.5,1.63,1.67,1.66,2.74-.07,.26-.12,.54-.21,.79-.11,.3-.34,.5-.63,.64-2.42,1.09-4.83,2.19-7.24,3.29-.32,.14-.62,.14-.92,0-.75-.33-1.27-1.29-1.15-2.1Zm0,8.85c.11-.64,.43-1.14,.99-1.48,.35-.22,.71-.24,1.11-.07,2.36,1.07,4.71,2.14,7.08,3.19,.61,.27,.88,.73,.94,1.35,0,.06,0,.13,0,.19-.1,1.2-.6,2.16-1.7,2.74-.55,.29-1.08,.27-1.62-.12-2.07-1.5-4.16-2.99-6.25-4.47-.49-.34-.64-.77-.55-1.33Zm-7.5-21.26c.54-.45,1.18-.62,1.86-.59,.73-.02,1.38,.16,1.93,.63,.36,.31,.53,.7,.48,1.18-.16,1.6-.32,3.2-.48,4.8-.1,1.05-.21,2.09-.3,3.14-.03,.27-.15,.49-.35,.66-.64,.54-1.79,.56-2.46,.05-.23-.18-.38-.4-.41-.71-.14-1.47-.29-2.94-.44-4.41-.12-1.18-.24-2.37-.36-3.55-.05-.51,.16-.9,.53-1.22Zm4.28,33.07c.05,.49-.2,.85-.56,1.15-.48,.39-1.09,.58-1.73,.58-.76,.01-1.36-.13-1.88-.52-.45-.33-.69-.76-.63-1.35,.18-1.64,.33-3.29,.49-4.94,.09-.96,.19-1.92,.27-2.88,.03-.38,.2-.68,.52-.86,.72-.41,1.46-.42,2.18,0,.33,.19,.5,.48,.54,.87,.13,1.43,.29,2.87,.43,4.3,.12,1.22,.25,2.44,.36,3.66Zm-5.81-16.14c-3.81-1.89-7.62-3.79-11.43-5.67-.58-.29-.85-.73-.87-1.35-.04-1.14,.45-2.03,1.34-2.71,.37-.28,.79-.45,1.26-.38,.21,.03,.44,.12,.62,.24,3.11,2.07,6.22,4.14,9.33,6.21,.57,.38,1.15,.74,1.71,1.12,1.91,1.28,1.91,3.99,0,5.27-3.67,2.45-7.34,4.9-11.01,7.35-.45,.3-.91,.34-1.39,.14-.96-.41-1.5-1.18-1.77-2.15-.12-.42-.13-.84-.01-1.26,.11-.39,.34-.68,.72-.87,3.61-1.8,7.22-3.6,10.83-5.41,.28-.14,.56-.28,.86-.44-.07-.04-.13-.07-.18-.1Zm-43.22-13.75h19.97v4.59h-7.67v21.68h-4.63V28.93h-7.67v-4.59Zm-17.99,0h13.31v4.59h-13.47c-2.37,0-3.43,1.28-3.43,3.11,0,1.6,.82,3.11,3.89,3.11h6.15c7.16,0,8.84,3.97,8.84,7.75,0,4.44-2.37,7.71-8.37,7.71h-14.64v-4.59h14.79c2.49,0,3.62-1.36,3.62-3.27,0-1.71-.9-3.27-4.13-3.27h-6.11c-7.01,0-8.64-3.93-8.64-7.59,0-4.36,2.34-7.55,8.17-7.55Zm-38.3,160.67h-27.43V64.29c0-8.59-3.02-12.17-11.39-12.17h-14.18V23.97h16.51c28.59,0,36.5,10.5,36.5,38.41v122.62Zm279-15.49c0,7.12-5.79,12.91-12.91,12.91H158.31v-48.2H421.01v35.28Zm0-42.25H158.31v-60.33H421.01v60.33Z"/><rect x="174.39" y="148.32" width="3.76" height="20.09" rx=".55" ry=".55"/><path d="M179.41,101.08h22.35v-5.41h-22.35v-3.09c0-3.04,1.76-5.51,7.63-5.51h14.94v-5.7h-15.38c-9.83,0-13.67,4.73-13.67,11.25v21.35h6.48v-12.89Z"/><path d="M209.74,168.41h2.32c.32,0,.63-.29,.63-.63v-18.83c0-.32-.32-.63-.63-.63h-2.32c-.32,0-.63,.32-.63,.63v18.83c0,.34,.32,.63,.63,.63Z"/><path d="M231.23,168.41h11.68c.32,0,.55-.26,.55-.55v-2.35c0-.29-.23-.55-.55-.55h-8.49v-5.02h7.09c.29,0,.55-.23,.55-.55v-2.38c0-.29-.26-.55-.55-.55h-7.09v-4.71h8.49c.32,0,.55-.26,.55-.55v-2.35c0-.29-.23-.55-.55-.55h-11.68c-.32,0-.55,.26-.55,.55v19c0,.29,.23,.55,.55,.55Z"/><path d="M246.9,168.41h2.32c.32,0,.63-.29,.63-.63v-7.58c.32-.92,.92-2.07,2.55-2.07s2.18,1.06,2.18,2.78v6.86c0,.34,.26,.63,.63,.63h2.35c.32,0,.63-.29,.63-.63v-7c0-.6-.06-1.26-.06-1.26,0,0,.55-1.38,2.47-1.38,1.66,0,2.3,1.06,2.3,2.78v6.86c0,.34,.29,.63,.63,.63h2.3c.37,0,.66-.29,.66-.63v-6.77c0-3.44-1-6.14-5.25-6.14-2.38,0-3.7,1.41-4.28,2.01-1.09-1.32-2.04-2.01-3.96-2.01-2.24,0-3.42,1.18-3.99,1.84-.2-.95-.89-1.66-2.07-1.66-.46,0-.69,.29-.69,.6v12.14c0,.34,.32,.63,.63,.63Z"/><path d="M217.95,168.73c1.29,0,2.41-1.09,2.41-2.38s-1.12-2.38-2.41-2.38-2.38,1.09-2.38,2.38,1.09,2.38,2.38,2.38Z"/><path d="M275.94,168.73c2.15,0,3.79-.83,4.94-1.81,.32-.29,.29-.6,.06-.86l-1.12-1.49c-.2-.29-.55-.26-.86,0-.6,.49-1.52,.98-2.84,.98-1.92,0-3.27-1.44-3.3-3.07h8.49c.29,0,.6-.26,.63-.6,.03-.2,.06-.66,.06-.86,0-3.59-2.64-6.14-6.08-6.14-3.93,0-6.69,3.19-6.69,6.92s2.76,6.95,6.72,6.95Zm-.11-10.91c1.46,0,2.5,1,2.55,2.3h-5.37c.17-1.32,1.21-2.3,2.81-2.3Z"/><path d="M182.77,168.41h2.12c.63,0,.83-.14,.83-.63v-7.58c.32-.92,1.15-2.07,2.87-2.07,1.61,0,2.3,1.06,2.3,2.78v6.86c0,.34,.29,.63,.63,.63h2.32c.32,0,.63-.29,.63-.63v-6.86c0-3.21-1.09-6.06-5.31-6.06-2.3,0-3.53,1.09-4.28,1.89-.17-.98-.86-1.72-2.07-1.72-.46,0-.69,.29-.69,.6v12.14c0,.34,.32,.63,.63,.63Z"/><path d="M197.49,158.37h1.29v5.6c0,3.01,1.69,4.76,4.39,4.76,1.38,0,2.58-.43,3.04-.69,.32-.17,.46-.43,.37-.77l-.37-1.72c-.06-.32-.37-.49-.75-.34-.34,.14-1.12,.32-1.69,.32-.83,0-1.41-.52-1.41-1.81v-5.34h3.1c.34,0,.63-.32,.63-.63v-1.95c0-.37-.29-.63-.63-.63h-3.1v-3.67c0-.34-.26-.63-.6-.63h-2.35c-.32,0-.63,.29-.63,.63v3.67h-1.29c-.34,0-.6,.26-.6,.63v1.95c0,.32,.26,.63,.6,.63Z"/></g><path class="d" d="M105.51,23.97c28.59,0,36.5,10.5,36.5,38.41v122.63h-27.43V64.29c0-8.59-3.02-12.17-11.39-12.17h-14.18V23.97h16.51Z"/></g></g></svg>